<svg xmlns="http://www.w3.org/2000/svg" xmlns:xlink="http://www.w3.org/1999/xlink" width="400" zoomAndPan="magnify" viewBox="0 0 300 299.999988" height="400" preserveAspectRatio="xMidYMid meet" version="1.0"><defs><clipPath id="53ea5207f8"><path d="M 0 30.953125 L 299 30.953125 L 299 76 L 0 76 Z M 0 30.953125 " clip-rule="nonzero"/></clipPath><clipPath id="b4edb6c1ff"><path d="M 82 57 L 280 57 L 280 95.28125 L 82 95.28125 Z M 82 57 " clip-rule="nonzero"/></clipPath><clipPath id="5a45bfeaac"><path d="M 214.140625 0.171875 L 269 0.171875 L 269 52 L 214.140625 52 Z M 214.140625 0.171875 " clip-rule="nonzero"/></clipPath><clipPath id="b2c8a803e5"><path d="M 233 51 L 240 51 L 240 52.804688 L 233 52.804688 Z M 233 51 " clip-rule="nonzero"/></clipPath><clipPath id="9448bf5513"><path d="M 245 51 L 251 51 L 251 52.804688 L 245 52.804688 Z M 245 51 " clip-rule="nonzero"/></clipPath><clipPath id="b747c9130b"><path d="M 234 0.171875 L 241 0.171875 L 241 3 L 234 3 Z M 234 0.171875 " clip-rule="nonzero"/></clipPath><clipPath id="543b2a2068"><path d="M 214.140625 12 L 216 12 L 216 18 L 214.140625 18 Z M 214.140625 12 " clip-rule="nonzero"/></clipPath><clipPath id="e49a34b306"><path d="M 214.140625 20 L 215 20 L 215 26 L 214.140625 26 Z M 214.140625 20 " clip-rule="nonzero"/></clipPath><clipPath id="2c50acf933"><path d="M 214.140625 26 L 216 26 L 216 31 L 214.140625 31 Z M 214.140625 26 " clip-rule="nonzero"/></clipPath><clipPath id="dc13e746f0"><rect x="0" width="300" y="0" height="97"/></clipPath></defs><g transform="matrix(1, 0, 0, 1, 0, 102)"><g clip-path="url(#dc13e746f0)"><g clip-path="url(#53ea5207f8)"><path fill="#000000" d="M 82.183594 32.285156 L 80.25 32.492188 L 78.351562 32.539062 L 76.890625 32.582031 L 75.945312 32.625 L 74.027344 32.726562 L 72.0625 32.890625 C 71.363281 32.957031 70.816406 33.011719 70.429688 33.054688 L 67.75 33.40625 L 66.9375 33.777344 L 68.429688 33.59375 L 71.148438 33.304688 L 73.933594 33.046875 L 76.898438 32.914062 L 79.691406 32.839844 L 82.183594 32.285156 M 96.730469 32.835938 L 99.253906 33.414062 L 101.996094 33.863281 L 100.277344 33.894531 L 97.996094 33.339844 L 96.730469 32.835938 M 60.777344 35.457031 L 58.917969 35.996094 L 56.300781 36.492188 L 53.730469 37.007812 L 55.4375 36.414062 L 58.066406 35.90625 L 60.777344 35.457031 M 298.449219 54.175781 L 298.21875 55.148438 L 297.988281 56.125 C 298.226562 56.046875 298.460938 55.96875 298.695312 55.894531 C 298.613281 55.320312 298.53125 54.75 298.449219 54.175781 M 12.914062 55.078125 L 12.558594 55.300781 L 10.214844 56.863281 L 8.039062 58.492188 L 6.136719 60.296875 L 5.898438 61.070312 L 8.046875 59.335938 L 9.316406 58.050781 L 11.1875 56.449219 L 12.914062 55.078125 M 171.726562 64.105469 L 174.378906 64.925781 L 176.917969 65.699219 L 179.308594 66.523438 L 181.980469 67.316406 L 183.363281 67.609375 L 177.996094 66.015625 L 175.535156 65.167969 L 172.925781 64.367188 L 171.726562 64.105469 M 94.300781 30.976562 L 91.488281 31.109375 C 89.574219 31.234375 88.109375 31.429688 87.09375 31.695312 C 85.300781 31.628906 83.480469 31.601562 81.632812 31.605469 L 78.84375 31.929688 C 73.945312 32.125 71.078125 32.316406 70.242188 32.5 C 68.414062 32.699219 66.625 32.921875 64.882812 33.167969 L 54.183594 35.222656 C 53.660156 35.261719 54.476562 34.9375 56.640625 34.257812 C 48.859375 35.734375 42.730469 37.433594 38.25 39.355469 C 28.585938 43.386719 21.6875 46.652344 17.546875 49.15625 L 38.945312 40.074219 C 41.738281 39 46.019531 37.609375 51.792969 35.894531 C 52.996094 35.605469 54.265625 35.460938 55.59375 35.464844 L 66.269531 33.535156 L 68.941406 33.210938 L 73.398438 32.761719 C 78.257812 32.605469 81.109375 32.429688 81.953125 32.234375 C 86.496094 32.304688 89.191406 32.386719 90.039062 32.480469 C 89.132812 32.875 89.519531 33.117188 91.191406 33.210938 L 93.925781 33.199219 C 95.824219 33.394531 97.691406 33.636719 99.523438 33.917969 L 91.519531 34.367188 C 90.695312 34.257812 88.0625 34.128906 83.617188 33.984375 L 81.972656 33.886719 L 86.671875 33.273438 L 87.011719 33.066406 C 85.234375 32.996094 83.429688 32.957031 81.601562 32.953125 L 73.09375 33.449219 L 66.199219 34.117188 L 66.9375 33.777344 C 56.101562 35.382812 47.765625 37.226562 41.933594 39.308594 C 35.035156 41.917969 28.390625 44.863281 22 48.136719 L 12.914062 55.078125 C 16.960938 52.503906 21.503906 50.019531 26.539062 47.632812 L 28.8125 46.660156 C 30.230469 46.230469 31.679688 45.804688 33.167969 45.382812 C 16.042969 53.015625 5.257812 59.988281 0.824219 66.296875 C 4.84375 62.859375 7.832031 60.734375 9.785156 59.929688 C 24.554688 51.992188 35.964844 46.625 44.011719 43.835938 C 44.785156 43.5 47.269531 42.8125 51.457031 41.761719 L 66.105469 38.832031 C 70.476562 38.144531 76.683594 37.96875 84.71875 38.304688 C 90.148438 38.421875 94.5625 39.355469 97.960938 41.101562 C 96.378906 41.019531 94.851562 41.0625 93.378906 41.226562 C 91.011719 40.824219 86.828125 40.441406 80.824219 40.082031 C 79.078125 40.035156 77.296875 40.019531 75.488281 40.039062 L 73.195312 40.257812 C 74.003906 40.828125 75.011719 41.289062 76.21875 41.636719 L 82.707031 42.507812 C 83.59375 42.507812 86.0625 42.6875 90.109375 43.054688 L 92.535156 43.652344 C 93.449219 43.703125 95.957031 44.082031 100.058594 44.789062 L 112.167969 47.671875 C 113.492188 48.339844 114.859375 49 116.269531 49.652344 L 121.148438 50.929688 L 123.085938 51.820312 L 130.628906 53.914062 C 131.875 53.910156 133.363281 54.144531 135.097656 54.617188 L 150.082031 59.640625 L 154.785156 60.835938 L 161.960938 63.558594 L 164.351562 63.859375 C 166.015625 64.203125 167.675781 64.667969 169.328125 65.253906 C 161.449219 62.140625 156.757812 60.554688 155.253906 60.488281 L 153.109375 59.34375 L 153.566406 59.289062 L 163.539062 62.527344 L 175.292969 63.953125 L 177.4375 64.644531 L 172.847656 64.285156 L 180.25 66.652344 L 193.1875 70.375 C 199.992188 72.128906 207 73.535156 214.207031 74.605469 C 217.746094 75.121094 221.308594 75.554688 224.898438 75.898438 L 220.792969 74.523438 L 221.394531 74.382812 C 226.726562 74.960938 232.109375 75.394531 237.546875 75.6875 C 238.414062 75.78125 241.15625 75.796875 245.765625 75.726562 L 256.546875 75.078125 L 255.554688 74.871094 C 256.488281 74.792969 259.1875 74.273438 263.648438 73.320312 C 265.382812 73.03125 267.058594 72.910156 268.667969 72.949219 L 270.929688 72.527344 C 272.75 72.015625 274.550781 71.429688 276.335938 70.773438 C 289.113281 65.355469 296.332031 60.46875 297.988281 56.125 C 295.925781 56.441406 291.386719 58.824219 284.375 63.269531 C 279.78125 64.613281 275.160156 65.519531 270.515625 65.988281 C 263.839844 67.96875 260.488281 68.90625 260.460938 68.804688 C 259.632812 69.066406 257.078125 69.511719 252.792969 70.132812 C 250.234375 70.5625 245.90625 70.765625 239.800781 70.746094 C 237.234375 70.703125 232.847656 70.40625 226.640625 69.855469 C 225.824219 69.875 223.550781 70.136719 219.820312 70.648438 L 217.402344 70.632812 C 214.761719 70.292969 210.429688 69.609375 204.410156 68.585938 C 202.914062 68.695312 201.371094 68.699219 199.78125 68.597656 C 194.449219 67.910156 172.574219 61.3125 134.152344 48.800781 C 164.558594 58.574219 183.660156 64.441406 191.460938 66.402344 L 193.796875 66.65625 C 195.328125 66.6875 196.691406 66.488281 197.894531 66.046875 L 200.1875 66.140625 C 208.820312 67.917969 213.941406 68.796875 215.554688 68.777344 C 217.15625 68.796875 218.664062 68.605469 220.082031 68.199219 L 219.621094 67.726562 C 212.722656 66.863281 205.886719 65.671875 199.105469 64.152344 L 194.484375 61.816406 C 197.007812 61.992188 197.566406 61.898438 196.160156 61.539062 L 191.164062 60.332031 L 170.386719 50.066406 C 168.636719 49.480469 166.921875 49.046875 165.238281 48.765625 L 142.613281 42.015625 L 135.875 41.25 L 133.3125 40.484375 L 134.074219 40.164062 L 131.320312 38.972656 L 118.339844 35.503906 L 105.542969 32.578125 C 101.90625 31.941406 98.160156 31.40625 94.300781 30.976562 " fill-opacity="1" fill-rule="nonzero"/></g><g clip-path="url(#b4edb6c1ff)"><path fill="#000000" d="M 85.777344 59.078125 L 86.917969 59.804688 C 87.304688 59.960938 87.667969 60.097656 88.007812 60.21875 L 89.789062 60.449219 L 91.296875 60.746094 L 88.453125 59.753906 L 85.777344 59.078125 M 118.941406 68.195312 L 120.769531 68.414062 L 123.371094 69.101562 L 121.484375 68.875 L 118.941406 68.195312 M 127.980469 69.371094 L 129.289062 69.71875 L 134.238281 71.027344 L 136.710938 71.351562 L 134.464844 70.738281 L 129.476562 69.425781 L 127.980469 69.371094 M 146.488281 73.472656 L 147.777344 73.785156 L 149.0625 74.097656 C 149.007812 74.101562 148.949219 74.105469 148.890625 74.109375 L 146.699219 73.6875 C 146.628906 73.617188 146.558594 73.546875 146.488281 73.472656 M 278.769531 77.339844 L 278.34375 78.035156 L 277.914062 78.730469 L 279.046875 78.167969 C 278.953125 77.890625 278.863281 77.617188 278.769531 77.339844 M 82.390625 57.828125 L 83.796875 59.082031 C 83.523438 59.082031 86.019531 60.617188 91.277344 63.6875 L 93.875 64.703125 L 121.359375 73.3125 C 122.964844 73.433594 124.625 73.738281 126.335938 74.230469 L 141.546875 78.710938 L 145.628906 81.210938 L 140.773438 80.597656 C 137.078125 79.539062 133.605469 78.472656 130.355469 77.390625 L 129.394531 77.832031 L 130.609375 79.234375 C 131.445312 79.785156 132.839844 80.402344 134.792969 81.082031 C 139.332031 82.40625 141.996094 83.3125 142.78125 83.796875 C 149.726562 85.59375 153.132812 86.582031 153 86.765625 C 154.558594 87.203125 156.015625 87.898438 157.371094 88.851562 C 159.238281 89.414062 160.875 90.027344 162.285156 90.6875 C 164.050781 91.164062 165.75 91.484375 167.386719 91.636719 L 169.511719 91.398438 C 170.425781 91.71875 173.113281 92.316406 177.574219 93.199219 C 179.359375 93.621094 181.023438 93.875 182.5625 93.964844 C 184.132812 94.503906 185.886719 94.886719 187.820312 95.105469 C 189.449219 95.042969 191.132812 95.105469 192.867188 95.296875 L 191.933594 94.792969 C 190.222656 94.402344 188.445312 94.085938 186.601562 93.839844 L 184.070312 93.765625 L 181.851562 92.683594 L 189.480469 93.90625 C 190.261719 93.808594 192.660156 93.316406 196.671875 92.433594 L 198.785156 92.625 L 196.484375 93.242188 L 197.792969 93.664062 C 196.363281 93.464844 195.71875 93.441406 195.867188 93.585938 C 197.65625 93.832031 199.453125 93.984375 201.253906 94.050781 L 203.125 94.019531 C 199.269531 93.824219 197.523438 93.710938 197.890625 93.675781 C 200.5 93.894531 204.972656 94.085938 211.308594 94.242188 L 219.417969 94.246094 C 223.003906 94.140625 226.59375 93.960938 230.1875 93.699219 C 229.84375 93.386719 229.070312 93.023438 227.867188 92.609375 C 234.09375 92.171875 238.597656 91.714844 241.378906 91.246094 C 245.667969 90.367188 248.238281 89.933594 249.085938 89.933594 C 251.046875 89.121094 252.871094 88.511719 254.5625 88.109375 C 256.285156 87.851562 258.007812 87.722656 259.726562 87.722656 L 261.9375 86.164062 C 266.804688 84.46875 271.804688 82.519531 276.933594 80.316406 L 277.914062 78.730469 L 277.46875 78.953125 C 276.054688 78.902344 274.582031 79.101562 273.054688 79.546875 L 268.15625 81.234375 C 265.078125 81.574219 261.992188 81.796875 258.902344 81.902344 C 247.726562 84.902344 238.308594 86.585938 230.644531 86.960938 L 226.375 89.074219 C 225.5625 89.273438 222.949219 89.421875 218.535156 89.523438 C 216.851562 89.710938 215.273438 90.113281 213.800781 90.730469 C 205.8125 90.679688 199.613281 90.421875 195.203125 89.964844 C 186.347656 88.890625 177.738281 87.394531 169.367188 85.484375 C 179.679688 87.523438 186.660156 88.765625 190.3125 89.21875 C 195.433594 89.945312 200.675781 90.363281 206.046875 90.46875 L 208.570312 90.425781 L 210.773438 89.648438 L 212.636719 88.132812 L 223.046875 87.777344 C 224.785156 87.476562 226.113281 86.789062 227.027344 85.714844 C 224.4375 85.917969 220.105469 86.082031 214.035156 86.210938 C 213.355469 85.863281 212.0625 85.546875 210.15625 85.265625 L 210.707031 84.46875 C 210.609375 84.210938 209.429688 84.101562 207.167969 84.148438 C 199.710938 81.347656 195.511719 79.597656 194.566406 78.898438 L 192.242188 78.460938 L 189.695312 78.363281 C 187.933594 78.140625 186.210938 77.90625 184.527344 77.660156 L 182.054688 77.550781 L 176.980469 76.746094 L 174.394531 76.644531 C 172.835938 76.945312 171.3125 77.097656 169.820312 77.105469 L 169.511719 76.375 C 167.910156 75.734375 166.242188 75.289062 164.511719 75.039062 L 161.855469 74.722656 L 154.25 73.117188 L 151.667969 72.828125 L 146.507812 71.675781 C 145.382812 71.523438 142.867188 71.320312 138.957031 71.066406 L 136.285156 70.597656 L 128.820312 68.652344 L 126.179688 68.296875 L 120.902344 66.96875 L 119.785156 66.554688 L 121.042969 66.511719 C 115.660156 65.683594 107.386719 63.433594 96.222656 59.761719 C 97.351562 60.4375 98.617188 61.121094 100.011719 61.804688 L 110.058594 64.84375 C 113.933594 66.015625 117.070312 66.710938 119.46875 66.933594 C 120.773438 67.460938 122.371094 67.9375 124.269531 68.359375 L 127.054688 68.785156 L 137 71.402344 L 139.6875 71.898438 C 141.917969 72.375 142.757812 72.808594 142.210938 73.195312 C 143.910156 73.660156 145.664062 73.992188 147.480469 74.195312 L 142.675781 74.445312 L 136.683594 72.800781 L 139.148438 72.753906 L 138.742188 72.398438 C 138.570312 72.523438 135.195312 71.683594 128.613281 69.878906 L 127.269531 69.34375 L 127.980469 69.371094 L 126.835938 69.066406 L 124.0625 68.617188 C 119.746094 67.429688 117.191406 66.835938 116.402344 66.839844 C 112.074219 65.75 106.109375 64.023438 98.507812 61.660156 L 96.816406 61.75 C 95.710938 61.625 93.871094 61.289062 91.296875 60.746094 L 100.6875 63.796875 C 102.542969 64.4375 103.96875 65.09375 104.96875 65.761719 C 91.8125 61.71875 84.289062 59.074219 82.390625 57.828125 " fill-opacity="1" fill-rule="nonzero"/></g><g clip-path="url(#5a45bfeaac)"><path fill="#1a1a1a" d="M 259.496094 8.816406 C 259.300781 7.882812 258.9375 7.707031 258.140625 8.230469 C 258.613281 8.449219 259.042969 8.621094 259.496094 8.816406 Z M 250.566406 48.796875 C 251.765625 48.644531 252.839844 48.144531 253.742188 47.296875 C 252.734375 47.882812 251.574219 48.167969 250.566406 48.796875 Z M 242.34375 50.519531 C 242.515625 50.671875 242.925781 50.691406 242.839844 50.890625 C 242.429688 51.761719 243.074219 51.28125 243.332031 51.28125 C 243.761719 51.28125 244.191406 51.257812 244.621094 51.257812 C 244.964844 51.257812 245.304688 51.257812 245.800781 50.910156 C 245.476562 50.910156 245.371094 50.910156 245.261719 50.910156 C 244.941406 50.953125 244.621094 50.976562 244.296875 51.019531 C 243.933594 51.0625 243.996094 51 243.761719 50.648438 C 243.394531 50.148438 242.882812 50.28125 242.34375 50.519531 Z M 218.109375 13.304688 C 217.53125 14.609375 216.996094 15.9375 217.125 17.417969 C 217.359375 16.003906 218.992188 15.003906 218.109375 13.304688 Z M 218.003906 35.492188 C 216.222656 31.617188 215.578125 27.5 215.449219 23.277344 C 215.257812 27.566406 215.707031 31.75 218.003906 35.492188 Z M 263.402344 37.933594 C 262.390625 39.128906 261.40625 40.351562 260.375 41.589844 C 261.554688 41.480469 263.164062 39.457031 263.378906 37.910156 C 263.59375 37.867188 263.789062 37.34375 264.023438 37.867188 C 264.496094 37.519531 264.367188 38.585938 264.625 38.214844 C 265.117188 37.539062 265.417969 36.757812 265.804688 36.015625 C 265.742188 35.972656 265.675781 35.949219 265.589844 35.90625 C 265.203125 36.320312 265.117188 36.972656 264.625 37.300781 C 264.410156 37.105469 264.6875 36.757812 264.429688 36.714844 C 264.257812 36.691406 264.023438 36.867188 263.875 37.019531 C 263.636719 37.277344 263.402344 37.539062 263.402344 37.933594 Z M 259.066406 43.789062 C 258.464844 43.921875 258.011719 44.507812 257.328125 44.421875 C 257.21875 44.421875 256.941406 44.660156 257.046875 44.769531 C 257.691406 45.445312 257.070312 45.445312 256.660156 45.554688 C 256.617188 45.554688 256.597656 45.597656 256.597656 45.621094 C 256.898438 46.839844 255.738281 46.707031 255.203125 46.992188 C 253.933594 47.644531 253.140625 48.972656 251.722656 49.320312 C 251.082031 49.496094 250.523438 49.800781 250.027344 50.367188 C 249.46875 51.042969 248.484375 51.085938 247.644531 51.214844 C 245.519531 51.5 243.417969 51.714844 241.269531 51.695312 C 238.589844 51.652344 236.011719 51.128906 233.5 50.234375 C 231.890625 49.648438 230.625 48.363281 228.90625 47.6875 C 229.59375 47.382812 229.765625 47.425781 230.625 48.101562 C 231.140625 48.515625 231.785156 48.472656 232.34375 48.734375 C 230.433594 47.925781 228.929688 46.316406 226.867188 45.816406 C 226.632812 45.75 226.523438 45.664062 226.394531 45.46875 C 226.226562 45.183594 225.945312 44.792969 225.582031 44.945312 C 224.914062 45.207031 224.570312 44.792969 224.1875 44.398438 C 221.953125 42.15625 219.9375 39.761719 218.648438 36.777344 C 218.519531 36.472656 218.496094 36.496094 218.023438 36.515625 C 217.8125 36.515625 217.746094 36.277344 217.660156 36.125 C 216.414062 33.492188 215.386719 30.789062 215.085938 27.851562 C 214.828125 25.433594 214.871094 22.996094 215.171875 20.554688 C 215.984375 20.03125 215.578125 19.117188 215.816406 18.421875 C 216.113281 17.570312 216.222656 16.65625 216.480469 15.785156 C 216.757812 14.894531 217.101562 14.042969 217.425781 13.152344 C 217.46875 13 217.511719 12.847656 217.53125 12.671875 L 217.511719 12.738281 C 218.109375 11.5625 218.519531 10.300781 219.3125 9.253906 C 220.386719 7.816406 221.503906 6.402344 222.640625 4.984375 C 222.8125 4.769531 223.070312 4.636719 223.347656 4.507812 C 222.425781 5.769531 221.308594 6.835938 220.558594 8.207031 C 219.914062 9.382812 219.121094 10.453125 218.691406 11.757812 C 218.582031 12.085938 218.347656 12.453125 218.882812 12.605469 C 219.378906 12.757812 219.378906 12.28125 219.484375 12.019531 C 219.980469 11.082031 220.40625 10.101562 220.902344 9.144531 C 221.03125 8.882812 221.160156 8.535156 221.71875 8.359375 C 220.449219 10.582031 219.464844 12.78125 219.054688 15.199219 C 219.335938 14.414062 219.613281 13.628906 219.894531 12.847656 C 220.171875 12.019531 220.816406 11.429688 221.246094 10.710938 C 221.675781 9.972656 222.273438 9.320312 222.875 8.511719 C 222.960938 9.101562 222.703125 9.449219 222.511719 9.753906 C 220.945312 12.28125 219.679688 14.9375 218.949219 17.8125 C 218.347656 20.164062 218.195312 22.558594 218.261719 24.996094 C 218.304688 26.914062 218.582031 28.808594 219.3125 30.59375 C 219.421875 30.855469 219.507812 31.160156 220.085938 31.421875 C 218.304688 27.675781 218.667969 23.929688 219.140625 20.207031 C 219.613281 16.546875 221.074219 13.238281 223.21875 10.253906 C 222.769531 11.277344 222.296875 12.300781 221.824219 13.304688 C 220.859375 15.351562 220.320312 17.527344 219.871094 19.726562 C 219.421875 21.949219 219.527344 24.191406 219.527344 26.414062 C 219.527344 27.71875 219.980469 28.960938 220.234375 30.203125 C 220.730469 32.664062 221.910156 34.796875 223.347656 36.800781 C 223.542969 36.714844 223.519531 36.582031 223.457031 36.515625 C 222.789062 35.691406 222.769531 34.558594 222.039062 33.730469 C 221.179688 32.792969 220.902344 31.53125 220.664062 30.289062 C 220.449219 29.15625 220.191406 28.046875 219.957031 26.9375 C 219.570312 25.042969 219.828125 23.191406 220.023438 21.296875 C 220.214844 19.3125 220.816406 17.464844 221.203125 15.523438 C 221.523438 14.023438 222.359375 12.804688 223.285156 11.605469 C 223.175781 12.257812 222.1875 12.695312 222.917969 13.476562 C 223.414062 12.910156 223.929688 12.300781 223.992188 11.410156 C 224.015625 11.015625 225.324219 9.929688 225.710938 9.972656 C 226.011719 9.992188 226.074219 9.753906 226.203125 9.625 C 226.867188 8.882812 227.46875 8.097656 228.179688 7.445312 C 230.367188 5.355469 232.984375 4.050781 235.753906 3.003906 C 236.121094 2.875 236.527344 2.851562 236.765625 2.503906 L 236.742188 2.523438 C 237.6875 1.828125 238.71875 1.390625 239.898438 1.71875 C 240.542969 1.894531 240.585938 1.175781 241.035156 1 C 241.527344 0.804688 242.085938 0.78125 242.539062 0.414062 C 242.839844 0.171875 242.925781 0.914062 243.375 0.890625 C 243.953125 0.847656 244.597656 1.132812 245.136719 1 C 246.550781 0.609375 247.816406 1.414062 249.191406 1.414062 C 249.707031 1.414062 250.222656 1.894531 250.757812 2.132812 C 250.566406 2.523438 250.242188 2.175781 250.007812 2.480469 C 251.101562 2.613281 251.980469 3.242188 253.011719 3.417969 C 253.464844 3.503906 253.828125 3.722656 254.171875 3.984375 C 254.859375 4.527344 255.589844 4.921875 256.46875 5.074219 C 256.855469 5.136719 257.261719 5.378906 257.371094 5.8125 C 257.519531 6.445312 257.96875 6.75 258.441406 7.121094 C 258.59375 6.640625 258.097656 6.511719 258.011719 6.183594 C 259.367188 6.074219 259.472656 7.839844 260.652344 7.96875 C 260.160156 6.117188 258.527344 5.3125 257.175781 4.289062 C 255.953125 3.375 254.644531 2.589844 253.378906 1.699219 C 255.007812 2.046875 256.296875 3.003906 257.519531 4.070312 C 257.671875 4.203125 257.796875 4.398438 257.949219 4.417969 C 259.472656 4.746094 260.179688 6.050781 261.125 7.074219 C 261.664062 7.664062 262.21875 8.230469 262.886719 8.6875 C 263.25 8.949219 263.53125 9.472656 263.636719 9.929688 C 263.808594 10.710938 263.960938 11.410156 264.730469 11.867188 C 265.246094 12.171875 265.246094 12.910156 265.546875 13.523438 C 265.097656 13.347656 265.117188 12.976562 264.753906 12.652344 C 265.160156 14.242188 265.613281 15.632812 266.167969 16.984375 C 267.199219 19.554688 267.414062 22.230469 267.308594 24.953125 C 267.265625 25.585938 267.308594 26.21875 267.308594 26.847656 C 267.308594 27.328125 267.09375 27.65625 266.535156 27.871094 C 266.855469 27.152344 266.621094 26.433594 266.835938 25.761719 C 266.898438 25.585938 266.878906 25.324219 266.664062 25.28125 C 266.363281 25.214844 266.425781 25.519531 266.363281 25.671875 C 266.320312 25.824219 266.296875 26 266.320312 26.152344 C 266.40625 27.742188 265.957031 29.222656 265.527344 30.726562 C 265.484375 30.898438 265.484375 31.074219 265.527344 31.289062 C 265.957031 30.550781 265.890625 29.59375 266.578125 28.894531 C 267.050781 29.984375 266.234375 30.964844 266.492188 31.988281 C 266.0625 32.597656 265.871094 33.335938 265.699219 34.054688 C 266.105469 33.402344 266.492188 32.773438 266.46875 31.964844 C 266.835938 31.617188 266.921875 31.117188 267.285156 30.746094 C 267.050781 32.160156 266.339844 33.511719 266.578125 35.125 C 267.285156 34.144531 267.394531 32.945312 268.101562 31.8125 C 267.714844 34.40625 266.46875 37.5625 264.28125 40 C 263.960938 39.171875 263.617188 39.5 263.121094 39.890625 C 262.433594 40.457031 261.855469 41.199219 261.578125 41.9375 C 260.738281 44.203125 258.808594 45.183594 257.089844 46.445312 C 257.070312 46.445312 257.046875 46.425781 257.003906 46.402344 C 257.070312 46.140625 257.328125 46.078125 257.476562 45.925781 C 257.648438 45.75 257.992188 45.554688 257.96875 45.421875 C 257.820312 44.488281 258.765625 44.355469 259.066406 43.769531 C 259.410156 43.027344 260.351562 42.832031 260.675781 42.046875 C 260.160156 41.851562 259.667969 42.003906 259.515625 42.441406 C 259.367188 42.875 258.980469 43.269531 259.066406 43.789062 Z M 259.066406 43.789062 " fill-opacity="1" fill-rule="evenodd"/></g><g clip-path="url(#b2c8a803e5)"><path fill="#1a1a1a" d="M 234.722656 51.738281 C 234.597656 51.433594 234.167969 51.476562 234.210938 51.042969 C 235.882812 51.152344 237.472656 51.761719 239.101562 52.042969 C 237.214844 52.066406 235.28125 52.804688 233.394531 51.457031 C 233.867188 51.5625 234.253906 51.652344 234.722656 51.738281 Z M 234.722656 51.738281 " fill-opacity="1" fill-rule="evenodd"/></g><g clip-path="url(#9448bf5513)"><path fill="#1a1a1a" d="M 245.992188 52.761719 C 247.410156 51.976562 248.933594 51.761719 250.609375 51.5 C 249.191406 52.738281 247.582031 52.761719 245.992188 52.761719 Z M 245.992188 52.761719 " fill-opacity="1" fill-rule="evenodd"/></g><g clip-path="url(#b747c9130b)"><path fill="#1a1a1a" d="M 236.765625 2.503906 C 236.25 2.523438 235.753906 2.742188 235.28125 2.9375 C 234.9375 3.070312 234.917969 2.828125 234.789062 2.632812 C 234.574219 2.371094 234.808594 2.261719 234.9375 2.21875 C 236.722656 1.894531 238.332031 0.890625 240.21875 0.847656 C 240.15625 1.195312 239.917969 1.175781 239.746094 1.195312 C 238.804688 1.261719 237.988281 1.71875 237.105469 1.980469 C 236.804688 2.066406 236.785156 2.285156 236.742188 2.523438 C 236.742188 2.523438 236.765625 2.503906 236.765625 2.503906 Z M 236.765625 2.503906 " fill-opacity="1" fill-rule="evenodd"/></g><g clip-path="url(#543b2a2068)"><path fill="#1a1a1a" d="M 215.449219 12.890625 C 215.300781 14.480469 214.785156 15.765625 214.226562 17.027344 C 214.441406 15.65625 214.417969 14.242188 215.449219 12.890625 Z M 215.449219 12.890625 " fill-opacity="1" fill-rule="evenodd"/></g><path fill="#1a1a1a" d="M 264.796875 10.058594 C 265.417969 10.910156 266.082031 11.714844 266.339844 12.957031 C 265.03125 12.324219 265.011719 11.148438 264.796875 10.058594 Z M 264.796875 10.058594 " fill-opacity="1" fill-rule="evenodd"/><path fill="#1a1a1a" d="M 217.511719 12.738281 L 217.53125 12.671875 C 216.84375 13.238281 216.714844 14.109375 216.414062 14.871094 C 216.714844 13.261719 217.46875 11.800781 218.175781 10.320312 C 218.046875 11.148438 217.554688 11.886719 217.511719 12.738281 Z M 217.511719 12.738281 " fill-opacity="1" fill-rule="evenodd"/><g clip-path="url(#e49a34b306)"><path fill="#1a1a1a" d="M 214.355469 25.28125 C 214.140625 23.757812 214.417969 22.230469 214.484375 20.707031 C 214.441406 22.230469 214.441406 23.734375 214.355469 25.28125 Z M 214.355469 25.28125 " fill-opacity="1" fill-rule="evenodd"/></g><path fill="#1a1a1a" d="M 268.9375 26 C 269.109375 27.066406 268.894531 28.066406 268.660156 29.089844 C 268.273438 28.023438 268.832031 27.023438 268.9375 26 Z M 268.9375 26 " fill-opacity="1" fill-rule="evenodd"/><g clip-path="url(#2c50acf933)"><path fill="#1a1a1a" d="M 214.484375 26.476562 C 214.699219 27.785156 214.914062 29.089844 215.128906 30.398438 C 214.632812 29.15625 214.417969 27.851562 214.484375 26.476562 Z M 214.484375 26.476562 " fill-opacity="1" fill-rule="evenodd"/></g><path fill="#1a1a1a" d="M 261.8125 43.007812 C 261.019531 44.246094 260.09375 44.988281 258.9375 45.488281 C 259.835938 44.703125 260.738281 43.941406 261.8125 43.007812 Z M 261.8125 43.007812 " fill-opacity="1" fill-rule="evenodd"/><path fill="#1a1a1a" d="M 266.597656 16.65625 C 266.578125 15.875 265.742188 15.265625 266.019531 14.394531 C 266.253906 15.132812 266.640625 15.828125 266.597656 16.65625 Z M 266.597656 16.65625 " fill-opacity="1" fill-rule="evenodd"/><path fill="#1a1a1a" d="M 218.476562 39.019531 C 218.109375 38.367188 217.746094 37.691406 217.359375 37.039062 C 217.425781 36.996094 217.488281 36.972656 217.53125 36.929688 C 217.898438 37.605469 218.261719 38.28125 218.625 38.933594 C 218.582031 38.976562 218.519531 39 218.476562 39.019531 Z M 218.476562 39.019531 " fill-opacity="1" fill-rule="evenodd"/></g></g></svg>